<svg width="20" height="20" viewBox="0 0 20 20" fill="none" xmlns="http://www.w3.org/2000/svg">
<mask id="mask0" mask-type="alpha" maskUnits="userSpaceOnUse" x="0" y="3" width="20" height="14">
<path d="M12.5 10.0002C14.3417 10.0002 15.8333 8.5085 15.8333 6.66683C15.8333 4.82516 14.3417 3.3335 12.5 3.3335C10.6583 3.3335 9.16668 4.82516 9.16668 6.66683C9.16668 8.5085 10.6583 10.0002 12.5 10.0002ZM5.00001 8.3335V5.8335H3.33334V8.3335H0.833344V10.0002H3.33334V12.5002H5.00001V10.0002H7.50001V8.3335H5.00001ZM12.5 11.6668C10.275 11.6668 5.83334 12.7835 5.83334 15.0002V16.6668H19.1667V15.0002C19.1667 12.7835 14.725 11.6668 12.5 11.6668Z" fill="black"/>
</mask>
<g mask="url(#mask0)">
<rect width="20" height="20" fill="#686868"/>
</g>
</svg>
