<svg width="20" height="20" viewBox="0 0 20 20" fill="none" xmlns="http://www.w3.org/2000/svg">
<mask id="mask0" mask-type="alpha" maskUnits="userSpaceOnUse" x="3" y="3" width="14" height="14">
<path d="M5.04547 3.3335H14.9564C15.898 3.3335 16.6677 4.10351 16.6677 5.0451V14.956C16.6677 15.8973 15.898 16.6668 14.9564 16.6668H5.04547C4.10389 16.6668 3.33334 15.8973 3.33334 14.956V5.0451C3.33334 4.10351 4.10389 3.3335 5.04547 3.3335ZM13.0473 4.81437C12.7167 4.81437 12.447 5.0851 12.447 5.41553V6.85182C12.447 7.18238 12.7167 7.45249 13.0473 7.45249H14.5542C14.8843 7.45249 15.1545 7.18238 15.1545 6.85182V5.41553C15.1545 5.0851 14.8843 4.81437 14.5542 4.81437H13.0473ZM15.1602 8.97199H13.987C14.0982 9.33535 14.1586 9.71854 14.1586 10.1169C14.1586 12.3341 12.3021 14.1324 10.0131 14.1324C7.72458 14.1324 5.86812 12.3341 5.86812 10.1169C5.86812 9.71854 5.92901 9.33535 6.03973 8.97199H4.81568V14.605C4.81568 14.8967 5.05387 15.134 5.34532 15.134H14.6308C14.9225 15.134 15.1602 14.8967 15.1602 14.605V8.97199ZM10.0131 7.37675C8.53477 7.37675 7.33557 8.53809 7.33557 9.97198C7.33557 11.4044 8.53477 12.5666 10.0131 12.5666C11.4923 12.5666 12.6915 11.4044 12.6915 9.97198C12.6915 8.53805 11.4923 7.37675 10.0131 7.37675Z" fill="black"/>
</mask>
<g mask="url(#mask0)">
<rect width="20" height="20" fill="#E5E5E5"/>
</g>
</svg>
