<svg width="20" height="20" viewBox="0 0 20 20" fill="none" xmlns="http://www.w3.org/2000/svg">
<mask id="mask0" mask-type="alpha" maskUnits="userSpaceOnUse" x="3" y="5" width="15" height="10">
<path fill-rule="evenodd" clip-rule="evenodd" d="M14.3292 6.73835C14.3197 6.73216 14.3113 6.72457 14.3042 6.71584C14.055 6.48861 13.7631 6.31318 13.4455 6.19974C13.1279 6.08629 12.7909 6.03709 12.4542 6.05501L12.4292 6.00669C12.434 6.00337 12.44 6.00189 12.4458 6.00252C13.0875 5.86293 13.4667 5.71876 13.5833 5.56251C13.5954 5.53862 13.6008 5.51191 13.5988 5.48522C13.5969 5.45853 13.5877 5.43289 13.5723 5.41101C13.5569 5.38913 13.5358 5.37185 13.5113 5.36104C13.4868 5.35022 13.4599 5.34626 13.4333 5.34959C13.1304 5.3821 12.8325 5.45064 12.5458 5.55376C12.8833 5.34959 13.0125 5.20586 12.9375 5.13086C12.5369 5.16823 12.1609 5.34039 11.8708 5.61919C11.9691 5.52087 12.0258 5.38854 12.0292 5.2496C11.8589 5.35989 11.6998 5.48661 11.5542 5.62794C11.3057 5.88813 11.0773 6.1667 10.8708 6.46127L10.8584 6.48294C10.4315 7.12692 10.1107 7.83522 9.90835 8.58085L9.8375 8.63377L9.82498 8.64669C9.54838 8.3182 9.21362 8.04348 8.83749 7.83627C8.3204 7.52384 7.77989 7.2519 7.22082 7.02292C6.55564 6.69681 5.86607 6.42308 5.15834 6.20419C5.16183 6.57334 5.27022 6.93388 5.47089 7.24374C5.67156 7.55361 5.95623 7.80001 6.29166 7.95419V7.96709C6.02924 7.96329 5.76782 8.00013 5.51666 8.07626C5.56667 8.7596 6.0778 9.23113 7.05002 9.49086L7.04585 9.50377C6.87138 9.48923 6.69587 9.51465 6.5327 9.57811C6.36952 9.64157 6.22298 9.7414 6.10418 9.87001C6.27137 10.1654 6.52276 10.4043 6.82628 10.5562C7.1298 10.7081 7.47168 10.7661 7.80833 10.7229C7.66726 10.7845 7.53979 10.8734 7.43332 10.9846C7.36343 11.0498 7.31287 11.1331 7.28714 11.2252C7.26142 11.3173 7.26154 11.4147 7.2875 11.5067C7.38864 11.6616 7.53282 11.7835 7.70233 11.8575C7.87185 11.9315 8.05934 11.9544 8.24168 11.9234L8.26665 11.9542L8.25419 11.9667C7.87798 12.3464 7.42264 12.6385 6.92068 12.8222C6.41871 13.0059 5.88243 13.0767 5.34999 13.0296L5.33336 13.0383C4.50619 12.9787 3.72214 12.6464 3.10415 12.0933C3.90816 13.1872 5.01907 14.0175 6.29583 14.4788C7.76624 14.9526 9.34266 14.9889 10.8333 14.5834H10.8584C12.3329 14.1771 13.6402 13.3129 14.5917 12.1154C15.0185 11.5624 15.3212 10.9239 15.4792 10.2433C15.7857 10.284 16.0975 10.2482 16.3868 10.1392C16.6762 10.0301 16.9341 9.85118 17.1375 9.61834L17.1292 9.60418C16.6318 9.68502 16.1228 9.65658 15.6375 9.52084V9.44167C15.6375 9.43792 15.6375 9.43792 15.6417 9.44167C16.45 9.355 16.9292 9.10836 17.0833 8.69753C16.5454 8.90516 15.9505 8.91137 15.4083 8.71502C15.2871 7.95149 14.9059 7.25324 14.3292 6.73835Z" fill="#E5E5E5"/>
</mask>
<g mask="url(#mask0)">
<rect width="20" height="20" fill="#E5E5E5"/>
</g>
</svg>
