<svg width="40" height="40" viewBox="0 0 40 40" fill="none" xmlns="http://www.w3.org/2000/svg">
<path d="M37.7142 2.28516C34.6674 -0.761719 29.7104 -0.761719 26.6635 2.28516L20.5515 8.39691C18.3466 10.6021 17.6761 13.9069 18.8022 16.777L16.7764 18.8031C13.906 17.677 10.6012 18.3475 8.39632 20.5524L2.28395 26.6644C-0.762619 29.711 -0.762619 34.6683 2.28395 37.7151C5.33083 40.7617 10.2878 40.7617 13.3347 37.7151L19.4467 31.6031C21.6519 29.3979 22.3221 26.0931 21.196 23.223L23.2218 21.1972C26.1151 22.3322 29.4132 21.6367 31.6019 19.4476L37.7142 13.3356C40.7608 10.289 40.7608 5.33173 37.7142 2.28516ZM18.3417 30.498L12.2296 36.6098C9.7867 39.053 5.83253 39.0533 3.3893 36.6098C0.94606 34.1669 0.945755 30.213 3.3893 27.7695L9.50136 21.6574C11.0971 20.0613 13.4131 19.4708 15.5402 20.0394L13.3673 22.2122C12.5333 22.3309 11.7581 22.7155 11.1585 23.3154L5.04732 29.4272C3.52205 30.9515 3.52174 33.4274 5.04701 34.9518C6.57136 36.4771 9.04726 36.4777 10.5719 34.9521L16.684 28.8409C17.2836 28.241 17.6685 27.4658 17.7869 26.6321L19.96 24.4592C20.5283 26.5863 19.9378 28.902 18.3417 30.498ZM12.2638 27.7347C12.8909 28.3624 13.7497 28.7 14.6716 28.6429L9.46657 33.847C8.55287 34.7614 7.06636 34.7617 6.15205 33.8467C5.23805 32.9333 5.23744 31.4468 6.15236 30.5325L11.3565 25.3275C11.2988 26.2561 11.6416 27.113 12.2638 27.7347ZM16.4868 25.722L15.5786 26.6299C14.9707 27.2382 13.9798 27.2412 13.3688 26.6296C12.7594 26.0211 12.7594 25.0299 13.3692 24.4205L24.4196 13.3701C25.0275 12.7621 26.0184 12.7588 26.6293 13.3704C27.2388 13.9792 27.2388 14.9701 26.629 15.5795L16.4868 25.722ZM30.4971 18.3426C28.9011 19.9384 26.5854 20.5292 24.4583 19.9606L26.6312 17.7878C27.4646 17.6694 28.2395 17.2849 28.8391 16.6855C28.8394 16.6852 28.8397 16.6849 28.8397 16.6846L34.9509 10.5728C36.4758 9.04877 36.4768 6.57288 34.9512 5.04822C33.6911 3.78723 31.7383 3.53943 30.2023 4.4455C29.8306 4.66461 29.7073 5.14374 29.9265 5.51544C30.1459 5.88715 30.625 6.01074 30.9964 5.79163C31.918 5.2478 33.0899 5.39642 33.8461 6.15326C34.7604 7.06696 34.7608 8.55347 33.8461 9.46777L28.642 14.6725C28.6994 13.7442 28.3569 12.8873 27.7344 12.2653C27.1451 11.6754 26.3605 11.3504 25.5246 11.3504C25.4584 11.3504 25.3925 11.3535 25.3269 11.3574L26.6638 10.0204C26.969 9.71527 26.969 9.22058 26.6638 8.91541C26.3587 8.61023 25.864 8.61023 25.5588 8.91541L23.3145 11.1594C22.7146 11.7593 22.33 12.5345 22.2113 13.3682L20.0385 15.5411C19.4699 13.414 20.0607 11.098 21.6565 9.50226L27.7686 3.3902C30.2115 0.947266 34.1657 0.946655 36.6092 3.3902C39.0521 5.83344 39.0524 9.78729 36.6092 12.2308L30.4971 18.3426Z" fill="url(#paint0_linear)"/>
<defs>
<linearGradient id="paint0_linear" x1="19.9991" y1="0" x2="19.9991" y2="40.0001" gradientUnits="userSpaceOnUse">
<stop stop-color="#EF4744"/>
<stop offset="1" stop-color="#FF9966"/>
</linearGradient>
</defs>
</svg>
