<svg width="40" height="38" viewBox="0 0 40 38" fill="none" xmlns="http://www.w3.org/2000/svg">
<path d="M39.7035 15.8183L39.7036 15.8182L34.5959 12.432V1.11378C34.5959 0.747911 34.2993 0.451294 33.9334 0.451294H6.06572C5.69985 0.451294 5.40323 0.747911 5.40323 1.11378V12.4328L0.29644 15.8182L0.296529 15.8184C0.117922 15.937 0 16.1398 0 16.3704V36.8862C0 37.2521 0.296617 37.5487 0.662486 37.5487H39.3375C39.7034 37.5487 40 37.2521 40 36.8862V16.3704C40 16.1398 39.8821 15.937 39.7035 15.8183ZM5.40323 18.1352L3.32524 17.0329H5.40323V18.1352ZM1.32497 17.4717L16.5599 25.5531L1.32497 35.6518V17.4717ZM19.9997 24.8625L37.1393 36.2238H2.86026L19.9997 24.8625ZM23.4398 25.5532L38.6749 17.4717V35.6522L23.4398 25.5532ZM34.5959 17.0329H36.6749L34.5959 18.1356V17.0329ZM37.1393 15.7079H34.5959V14.0217L37.1393 15.7079ZM33.2709 1.77627V18.8385L22.1829 24.7201L20.3657 23.5155C20.1439 23.3684 19.8555 23.3684 19.6337 23.5155L17.8167 24.7199L6.7282 18.838V1.77627H33.2709ZM5.40323 15.7079H2.86088L5.40323 14.0225V15.7079Z" fill="url(#paint0_linear)"/>
<defs>
<linearGradient id="paint0_linear" x1="20" y1="0.451294" x2="20" y2="37.5487" gradientUnits="userSpaceOnUse">
<stop stop-color="#EF4744"/>
<stop offset="1" stop-color="#FF9966"/>
</linearGradient>
</defs>
</svg>
