<svg width="40" height="40" viewBox="0 0 40 40" fill="none" xmlns="http://www.w3.org/2000/svg">
<path d="M23.125 22.3438C23.5562 22.3438 23.9062 21.9937 23.9062 21.5625C23.9062 21.1313 23.5562 20.7812 23.125 20.7812C22.6938 20.7812 22.3438 21.1313 22.3438 21.5625C22.3438 21.9937 22.6938 22.3438 23.125 22.3438Z" fill="url(#paint0_linear)"/>
<path d="M5.9375 22.3438C6.36871 22.3438 6.71875 21.9937 6.71875 21.5625C6.71875 21.1313 6.36871 20.7812 5.9375 20.7812C5.50629 20.7812 5.15625 21.1313 5.15625 21.5625C5.15625 21.9937 5.50629 22.3438 5.9375 22.3438Z" fill="url(#paint1_linear)"/>
<path d="M0.78125 9.84375C1.21277 9.84375 1.5625 9.49402 1.5625 9.0625V1.5625H9.0625C9.49402 1.5625 9.84375 1.21277 9.84375 0.78125C9.84375 0.349731 9.49402 0 9.0625 0H0.78125C0.349731 0 0 0.349731 0 0.78125V9.0625C0 9.49402 0.349731 9.84375 0.78125 9.84375Z" fill="url(#paint2_linear)"/>
<path d="M9.84375 39.2188C9.84375 38.7872 9.49402 38.4375 9.0625 38.4375H1.5625V30.9375C1.5625 30.506 1.21277 30.1562 0.78125 30.1562C0.349731 30.1562 0 30.506 0 30.9375V39.2188C0 39.6503 0.349731 40 0.78125 40H9.0625C9.49402 40 9.84375 39.6503 9.84375 39.2188Z" fill="url(#paint3_linear)"/>
<path d="M39.2188 30.1562C38.7872 30.1562 38.4375 30.506 38.4375 30.9375V38.4375H30.9375C30.506 38.4375 30.1562 38.7872 30.1562 39.2188C30.1562 39.6503 30.506 40 30.9375 40H39.2188C39.6503 40 40 39.6503 40 39.2188V30.9375C40 30.506 39.6503 30.1562 39.2188 30.1562Z" fill="url(#paint4_linear)"/>
<path d="M39.2188 0H30.9375C30.506 0 30.1562 0.349731 30.1562 0.78125C30.1562 1.21277 30.506 1.5625 30.9375 1.5625H38.4375V9.0625C38.4375 9.49402 38.7872 9.84375 39.2188 9.84375C39.6503 9.84375 40 9.49402 40 9.0625V0.78125C40 0.349731 39.6503 0 39.2188 0Z" fill="url(#paint5_linear)"/>
<path d="M5.15625 34.0625C5.15625 34.494 5.50598 34.8438 5.9375 34.8438H13.75C14.1815 34.8438 14.5312 34.494 14.5312 34.0625V26.25C14.5312 25.8185 14.1815 25.4688 13.75 25.4688H5.9375C5.50598 25.4688 5.15625 25.8185 5.15625 26.25V34.0625ZM6.71875 27.0312H12.9688V33.2812H6.71875V27.0312Z" fill="url(#paint6_linear)"/>
<path d="M13.75 5.15625H5.9375C5.50598 5.15625 5.15625 5.50598 5.15625 5.9375V13.75C5.15625 14.1815 5.50598 14.5312 5.9375 14.5312H13.75C14.1815 14.5312 14.5312 14.1815 14.5312 13.75V5.9375C14.5312 5.50598 14.1815 5.15625 13.75 5.15625ZM12.9688 12.9688H6.71875V6.71875H12.9688V12.9688Z" fill="url(#paint7_linear)"/>
<path d="M34.8438 5.9375C34.8438 5.50598 34.494 5.15625 34.0625 5.15625H26.25C25.8185 5.15625 25.4688 5.50598 25.4688 5.9375V13.75C25.4688 14.1815 25.8185 14.5312 26.25 14.5312H34.0625C34.494 14.5312 34.8438 14.1815 34.8438 13.75V5.9375ZM33.2812 12.9688H27.0312V6.71875H33.2812V12.9688Z" fill="url(#paint8_linear)"/>
<path d="M34.8438 34.0625V26.25C34.8438 25.8185 34.494 25.4688 34.0625 25.4688H26.25C25.8185 25.4688 25.4688 25.8185 25.4688 26.25V34.0625C25.4688 34.494 25.8185 34.8438 26.25 34.8438H34.0625C34.494 34.8438 34.8438 34.494 34.8438 34.0625ZM33.2812 33.2812H27.0312V27.0312H33.2812V33.2812Z" fill="url(#paint9_linear)"/>
<path d="M10.625 28.5938H9.0625C8.63098 28.5938 8.28125 28.9435 8.28125 29.375V30.9375C8.28125 31.369 8.63098 31.7188 9.0625 31.7188H10.625C11.0565 31.7188 11.4062 31.369 11.4062 30.9375V29.375C11.4062 28.9435 11.0565 28.5938 10.625 28.5938Z" fill="url(#paint10_linear)"/>
<path d="M9.0625 11.4062H10.625C11.0565 11.4062 11.4062 11.0565 11.4062 10.625V9.0625C11.4062 8.63098 11.0565 8.28125 10.625 8.28125H9.0625C8.63098 8.28125 8.28125 8.63098 8.28125 9.0625V10.625C8.28125 11.0565 8.63098 11.4062 9.0625 11.4062Z" fill="url(#paint11_linear)"/>
<path d="M29.375 11.4062H30.9375C31.369 11.4062 31.7188 11.0565 31.7188 10.625V9.0625C31.7188 8.63098 31.369 8.28125 30.9375 8.28125H29.375C28.9435 8.28125 28.5938 8.63098 28.5938 9.0625V10.625C28.5938 11.0565 28.9435 11.4062 29.375 11.4062Z" fill="url(#paint12_linear)"/>
<path d="M29.375 31.7188H30.9375C31.369 31.7188 31.7188 31.369 31.7188 30.9375V29.375C31.7188 28.9435 31.369 28.5938 30.9375 28.5938H29.375C28.9435 28.5938 28.5938 28.9435 28.5938 29.375V30.9375C28.5938 31.369 28.9435 31.7188 29.375 31.7188Z" fill="url(#paint13_linear)"/>
<path d="M8.28125 21.5625C8.28125 21.994 8.63098 22.3438 9.0625 22.3438H19.2188V26.25C19.2188 26.6815 19.5685 27.0312 20 27.0312C20.4315 27.0312 20.7812 26.6815 20.7812 26.25V21.5625C20.7812 21.131 20.4315 20.7812 20 20.7812H9.0625C8.63098 20.7812 8.28125 21.131 8.28125 21.5625Z" fill="url(#paint14_linear)"/>
<path d="M13.75 19.2188C14.1815 19.2188 14.5312 18.869 14.5312 18.4375C14.5312 18.006 14.1815 17.6562 13.75 17.6562H5.9375C5.50598 17.6562 5.15625 18.006 5.15625 18.4375C5.15625 18.869 5.50598 19.2188 5.9375 19.2188H13.75Z" fill="url(#paint15_linear)"/>
<path d="M16.875 19.2188H20C20.4315 19.2188 20.7812 18.869 20.7812 18.4375C20.7812 18.006 20.4315 17.6562 20 17.6562H16.875C16.4435 17.6562 16.0938 18.006 16.0938 18.4375C16.0938 18.869 16.4435 19.2188 16.875 19.2188Z" fill="url(#paint16_linear)"/>
<path d="M16.875 5.15625C16.4435 5.15625 16.0938 5.50598 16.0938 5.9375V13.75C16.0938 14.1815 16.4435 14.5312 16.875 14.5312H22.3438V18.4375C22.3438 18.869 22.6935 19.2188 23.125 19.2188H26.25C26.6815 19.2188 27.0312 18.869 27.0312 18.4375C27.0312 18.006 26.6815 17.6562 26.25 17.6562H23.9062V13.75C23.9062 13.3185 23.5565 12.9688 23.125 12.9688H17.6562V5.9375C17.6562 5.50598 17.3065 5.15625 16.875 5.15625Z" fill="url(#paint17_linear)"/>
<path d="M34.0625 17.6562H29.375C28.9435 17.6562 28.5938 18.006 28.5938 18.4375C28.5938 18.869 28.9435 19.2188 29.375 19.2188H34.0625C34.494 19.2188 34.8438 18.869 34.8438 18.4375C34.8438 18.006 34.494 17.6562 34.0625 17.6562Z" fill="url(#paint18_linear)"/>
<path d="M34.0625 20.7812H26.25C25.8185 20.7812 25.4688 21.131 25.4688 21.5625C25.4688 21.994 25.8185 22.3438 26.25 22.3438H34.0625C34.494 22.3438 34.8438 21.994 34.8438 21.5625C34.8438 21.131 34.494 20.7812 34.0625 20.7812Z" fill="url(#paint19_linear)"/>
<path d="M20 28.5938H16.875C16.4435 28.5938 16.0938 28.9435 16.0938 29.375V34.0625C16.0938 34.494 16.4435 34.8438 16.875 34.8438C17.3065 34.8438 17.6562 34.494 17.6562 34.0625V30.1562H20C20.4315 30.1562 20.7812 29.8065 20.7812 29.375C20.7812 28.9435 20.4315 28.5938 20 28.5938Z" fill="url(#paint20_linear)"/>
<path d="M22.3438 33.2812H20C19.5685 33.2812 19.2188 33.631 19.2188 34.0625C19.2188 34.494 19.5685 34.8438 20 34.8438H23.125C23.5565 34.8438 23.9062 34.494 23.9062 34.0625V24.6875C23.9062 24.256 23.5565 23.9062 23.125 23.9062C22.6935 23.9062 22.3438 24.256 22.3438 24.6875V33.2812Z" fill="url(#paint21_linear)"/>
<path d="M23.125 11.4062C23.5565 11.4062 23.9062 11.0565 23.9062 10.625V5.9375C23.9062 5.50598 23.5565 5.15625 23.125 5.15625C22.6935 5.15625 22.3438 5.50598 22.3438 5.9375V9.84375H20C19.5685 9.84375 19.2188 10.1935 19.2188 10.625C19.2188 11.0565 19.5685 11.4062 20 11.4062H23.125Z" fill="url(#paint22_linear)"/>
<defs>
<linearGradient id="paint0_linear" x1="23.125" y1="20.7812" x2="23.125" y2="22.3438" gradientUnits="userSpaceOnUse">
<stop stop-color="#EF4744"/>
<stop offset="1" stop-color="#FF9966"/>
</linearGradient>
<linearGradient id="paint1_linear" x1="5.9375" y1="20.7812" x2="5.9375" y2="22.3438" gradientUnits="userSpaceOnUse">
<stop stop-color="#EF4744"/>
<stop offset="1" stop-color="#FF9966"/>
</linearGradient>
<linearGradient id="paint2_linear" x1="4.92188" y1="0" x2="4.92188" y2="9.84375" gradientUnits="userSpaceOnUse">
<stop stop-color="#EF4744"/>
<stop offset="1" stop-color="#FF9966"/>
</linearGradient>
<linearGradient id="paint3_linear" x1="4.92188" y1="30.1562" x2="4.92188" y2="40" gradientUnits="userSpaceOnUse">
<stop stop-color="#EF4744"/>
<stop offset="1" stop-color="#FF9966"/>
</linearGradient>
<linearGradient id="paint4_linear" x1="35.0781" y1="30.1562" x2="35.0781" y2="40" gradientUnits="userSpaceOnUse">
<stop stop-color="#EF4744"/>
<stop offset="1" stop-color="#FF9966"/>
</linearGradient>
<linearGradient id="paint5_linear" x1="35.0781" y1="0" x2="35.0781" y2="9.84375" gradientUnits="userSpaceOnUse">
<stop stop-color="#EF4744"/>
<stop offset="1" stop-color="#FF9966"/>
</linearGradient>
<linearGradient id="paint6_linear" x1="9.84375" y1="25.4688" x2="9.84375" y2="34.8438" gradientUnits="userSpaceOnUse">
<stop stop-color="#EF4744"/>
<stop offset="1" stop-color="#FF9966"/>
</linearGradient>
<linearGradient id="paint7_linear" x1="9.84375" y1="5.15625" x2="9.84375" y2="14.5312" gradientUnits="userSpaceOnUse">
<stop stop-color="#EF4744"/>
<stop offset="1" stop-color="#FF9966"/>
</linearGradient>
<linearGradient id="paint8_linear" x1="30.1562" y1="5.15625" x2="30.1562" y2="14.5312" gradientUnits="userSpaceOnUse">
<stop stop-color="#EF4744"/>
<stop offset="1" stop-color="#FF9966"/>
</linearGradient>
<linearGradient id="paint9_linear" x1="30.1562" y1="25.4688" x2="30.1562" y2="34.8438" gradientUnits="userSpaceOnUse">
<stop stop-color="#EF4744"/>
<stop offset="1" stop-color="#FF9966"/>
</linearGradient>
<linearGradient id="paint10_linear" x1="9.84375" y1="28.5938" x2="9.84375" y2="31.7188" gradientUnits="userSpaceOnUse">
<stop stop-color="#EF4744"/>
<stop offset="1" stop-color="#FF9966"/>
</linearGradient>
<linearGradient id="paint11_linear" x1="9.84375" y1="8.28125" x2="9.84375" y2="11.4062" gradientUnits="userSpaceOnUse">
<stop stop-color="#EF4744"/>
<stop offset="1" stop-color="#FF9966"/>
</linearGradient>
<linearGradient id="paint12_linear" x1="30.1562" y1="8.28125" x2="30.1562" y2="11.4062" gradientUnits="userSpaceOnUse">
<stop stop-color="#EF4744"/>
<stop offset="1" stop-color="#FF9966"/>
</linearGradient>
<linearGradient id="paint13_linear" x1="30.1562" y1="28.5938" x2="30.1562" y2="31.7188" gradientUnits="userSpaceOnUse">
<stop stop-color="#EF4744"/>
<stop offset="1" stop-color="#FF9966"/>
</linearGradient>
<linearGradient id="paint14_linear" x1="14.5312" y1="20.7812" x2="14.5312" y2="27.0312" gradientUnits="userSpaceOnUse">
<stop stop-color="#EF4744"/>
<stop offset="1" stop-color="#FF9966"/>
</linearGradient>
<linearGradient id="paint15_linear" x1="9.84375" y1="17.6562" x2="9.84375" y2="19.2188" gradientUnits="userSpaceOnUse">
<stop stop-color="#EF4744"/>
<stop offset="1" stop-color="#FF9966"/>
</linearGradient>
<linearGradient id="paint16_linear" x1="18.4375" y1="17.6562" x2="18.4375" y2="19.2188" gradientUnits="userSpaceOnUse">
<stop stop-color="#EF4744"/>
<stop offset="1" stop-color="#FF9966"/>
</linearGradient>
<linearGradient id="paint17_linear" x1="21.5625" y1="5.15625" x2="21.5625" y2="19.2188" gradientUnits="userSpaceOnUse">
<stop stop-color="#EF4744"/>
<stop offset="1" stop-color="#FF9966"/>
</linearGradient>
<linearGradient id="paint18_linear" x1="31.7188" y1="17.6562" x2="31.7188" y2="19.2188" gradientUnits="userSpaceOnUse">
<stop stop-color="#EF4744"/>
<stop offset="1" stop-color="#FF9966"/>
</linearGradient>
<linearGradient id="paint19_linear" x1="30.1562" y1="20.7812" x2="30.1562" y2="22.3438" gradientUnits="userSpaceOnUse">
<stop stop-color="#EF4744"/>
<stop offset="1" stop-color="#FF9966"/>
</linearGradient>
<linearGradient id="paint20_linear" x1="18.4375" y1="28.5938" x2="18.4375" y2="34.8438" gradientUnits="userSpaceOnUse">
<stop stop-color="#EF4744"/>
<stop offset="1" stop-color="#FF9966"/>
</linearGradient>
<linearGradient id="paint21_linear" x1="21.5625" y1="23.9062" x2="21.5625" y2="34.8438" gradientUnits="userSpaceOnUse">
<stop stop-color="#EF4744"/>
<stop offset="1" stop-color="#FF9966"/>
</linearGradient>
<linearGradient id="paint22_linear" x1="21.5625" y1="5.15625" x2="21.5625" y2="11.4062" gradientUnits="userSpaceOnUse">
<stop stop-color="#EF4744"/>
<stop offset="1" stop-color="#FF9966"/>
</linearGradient>
</defs>
</svg>
