<svg width="9" height="9" viewBox="0 0 9 9" fill="none" xmlns="http://www.w3.org/2000/svg">
<path d="M8.03632 4.06273H5.32234V1.34874C5.32234 1.00288 5.04203 0.722412 4.69601 0.722412C4.35007 0.722412 4.06968 1.0028 4.06968 1.34874V4.06273H1.3557C1.00976 4.06273 0.72937 4.34312 0.72937 4.68905C0.72937 5.03491 1.00968 5.31538 1.3557 5.31538H4.06968V8.02937C4.06968 8.37523 4.34999 8.6557 4.69601 8.6557C5.04195 8.6557 5.32234 8.37531 5.32234 8.02937V5.31538H8.03632C8.38226 5.31538 8.66265 5.03499 8.66265 4.68905C8.66257 4.34312 8.38226 4.06273 8.03632 4.06273Z" fill="url(#paint0_linear)"/>
<defs>
<linearGradient id="paint0_linear" x1="4.69601" y1="0.722412" x2="4.69601" y2="8.6557" gradientUnits="userSpaceOnUse">
<stop stop-color="#EF4744"/>
<stop offset="1" stop-color="#FF9966"/>
</linearGradient>
</defs>
</svg>
