<svg width="40" height="40" viewBox="0 0 40 40" fill="none" xmlns="http://www.w3.org/2000/svg">
<path d="M34.0292 2.00415H1.96242C0.880312 2.00415 0 2.88454 0 3.96657V32.025C0 33.1071 0.880312 33.9874 1.96242 33.9874H23.3403C23.6863 33.9874 23.9666 33.707 23.9666 33.3611C23.9666 33.0152 23.6863 32.7348 23.3403 32.7348H1.96242C1.57102 32.7348 1.25258 32.4163 1.25258 32.0249V8.60126H26.0126C26.3585 8.60126 26.6389 8.32087 26.6389 7.97493C26.6389 7.62899 26.3586 7.3486 26.0126 7.3486H1.25258V3.96657C1.25258 3.57517 1.57102 3.25673 1.96242 3.25673H34.0292C34.4206 3.25673 34.7391 3.57517 34.7391 3.96657V7.3486H32.6931C32.3472 7.3486 32.0668 7.62899 32.0668 7.97493C32.0668 8.32087 32.3471 8.60126 32.6931 8.60126H34.7391V21.3361C34.7391 21.682 35.0194 21.9624 35.3654 21.9624C35.7113 21.9624 35.9917 21.682 35.9917 21.3361V3.96657C35.9916 2.88454 35.1113 2.00415 34.0292 2.00415Z" fill="url(#paint0_linear)"/>
<path d="M30.0192 7.34863H28.6827C28.3368 7.34863 28.0564 7.62902 28.0564 7.97496C28.0564 8.3209 28.3367 8.60129 28.6827 8.60129H30.0192C30.3651 8.60129 30.6455 8.3209 30.6455 7.97496C30.6455 7.62902 30.3652 7.34863 30.0192 7.34863Z" fill="url(#paint1_linear)"/>
<path d="M3.30315 4.67639H3.29643C2.95049 4.67639 2.67346 4.95678 2.67346 5.30272C2.67346 5.64866 2.95713 5.92905 3.30307 5.92905C3.64901 5.92905 3.9294 5.64866 3.9294 5.30272C3.9294 4.95678 3.64909 4.67639 3.30315 4.67639Z" fill="url(#paint2_linear)"/>
<path d="M8.64959 4.67639H8.64287C8.29693 4.67639 8.0199 4.95678 8.0199 5.30272C8.0199 5.64866 8.30357 5.92905 8.64951 5.92905C8.99544 5.92905 9.27584 5.64866 9.27584 5.30272C9.27584 4.95678 8.99552 4.67639 8.64959 4.67639Z" fill="url(#paint3_linear)"/>
<path d="M5.9699 4.67639H5.96318C5.61724 4.67639 5.34021 4.95678 5.34021 5.30272C5.34021 5.64866 5.62388 5.92905 5.96982 5.92905C6.31576 5.92905 6.59615 5.64866 6.59615 5.30272C6.59615 4.95678 6.31584 4.67639 5.9699 4.67639Z" fill="url(#paint4_linear)"/>
<path d="M32.6915 4.67639H11.3136C10.9676 4.67639 10.6873 4.95678 10.6873 5.30272C10.6873 5.64866 10.9676 5.92905 11.3136 5.92905H32.6915C33.0374 5.92905 33.3178 5.64866 33.3178 5.30272C33.3178 4.95678 33.0374 4.67639 32.6915 4.67639Z" fill="url(#paint5_linear)"/>
<path d="M32.692 23.382C28.6629 23.382 25.3851 26.6598 25.3851 30.6888C25.3851 34.7179 28.6629 37.9957 32.692 37.9957C36.7211 37.9957 39.9989 34.7179 39.9989 30.6888C39.9989 26.6598 36.7211 23.382 32.692 23.382ZM32.692 36.7431C29.3536 36.7431 26.6377 34.0272 26.6377 30.6888C26.6377 27.3505 29.3536 24.6345 32.692 24.6345C36.0303 24.6345 38.7463 27.3505 38.7463 30.6888C38.7463 34.0272 36.0303 36.7431 32.692 36.7431Z" fill="url(#paint6_linear)"/>
<path d="M36.0363 30.0627H33.3223V27.3487C33.3223 27.0029 33.042 26.7224 32.696 26.7224C32.3501 26.7224 32.0697 27.0028 32.0697 27.3487V30.0627H29.3557C29.0098 30.0627 28.7294 30.3431 28.7294 30.6891C28.7294 31.0349 29.0097 31.3154 29.3557 31.3154H32.0697V34.0294C32.0697 34.3752 32.35 34.6557 32.696 34.6557C33.0419 34.6557 33.3223 34.3753 33.3223 34.0294V31.3154H36.0363C36.3823 31.3154 36.6627 31.035 36.6627 30.6891C36.6626 30.3431 36.3823 30.0627 36.0363 30.0627Z" fill="url(#paint7_linear)"/>
<path d="M7.30886 12.0251C6.22675 12.0251 5.34644 12.9055 5.34644 13.9876C5.34644 15.0697 6.22675 15.95 7.30886 15.95C8.39097 15.95 9.27128 15.0697 9.27128 13.9876C9.27128 12.9055 8.39097 12.0251 7.30886 12.0251ZM7.30886 14.6973C6.91745 14.6973 6.59901 14.3789 6.59901 13.9875C6.59901 13.5961 6.91745 13.2776 7.30886 13.2776C7.70026 13.2776 8.0187 13.5961 8.0187 13.9875C8.0187 14.3789 7.70026 14.6973 7.30886 14.6973Z" fill="url(#paint8_linear)"/>
<path d="M30.0192 12.0251H11.3136C10.9676 12.0251 10.6873 12.3055 10.6873 12.6515C10.6873 12.9974 10.9676 13.2778 11.3136 13.2778H30.0192C30.3651 13.2778 30.6455 12.9974 30.6455 12.6515C30.6455 12.3055 30.3652 12.0251 30.0192 12.0251Z" fill="url(#paint9_linear)"/>
<path d="M12.6497 14.6973H11.3136C10.9676 14.6973 10.6873 14.9777 10.6873 15.3236C10.6873 15.6695 10.9676 15.9499 11.3136 15.9499H12.6497C12.9956 15.9499 13.276 15.6695 13.276 15.3236C13.276 14.9777 12.9957 14.6973 12.6497 14.6973Z" fill="url(#paint10_linear)"/>
<path d="M20.6697 14.6973H19.3336C18.9877 14.6973 18.7073 14.9777 18.7073 15.3236C18.7073 15.6695 18.9876 15.9499 19.3336 15.9499H20.6697C21.0156 15.9499 21.296 15.6695 21.296 15.3236C21.296 14.9777 21.0157 14.6973 20.6697 14.6973Z" fill="url(#paint11_linear)"/>
<path d="M16.6597 14.6973H15.3236C14.9777 14.6973 14.6973 14.9777 14.6973 15.3236C14.6973 15.6695 14.9776 15.9499 15.3236 15.9499H16.6597C17.0056 15.9499 17.286 15.6695 17.286 15.3236C17.286 14.9777 17.0057 14.6973 16.6597 14.6973Z" fill="url(#paint12_linear)"/>
<path d="M7.30886 18.7057C6.22675 18.7057 5.34644 19.586 5.34644 20.6681C5.34644 21.7502 6.22675 22.6305 7.30886 22.6305C8.39097 22.6305 9.27128 21.7502 9.27128 20.6681C9.27128 19.586 8.39097 18.7057 7.30886 18.7057ZM7.30886 21.378C6.91745 21.378 6.59901 21.0595 6.59901 20.6681C6.59901 20.2767 6.91745 19.9583 7.30886 19.9583C7.70026 19.9583 8.0187 20.2767 8.0187 20.6681C8.0187 21.0595 7.70026 21.378 7.30886 21.378Z" fill="url(#paint13_linear)"/>
<path d="M30.0192 18.7057H11.3136C10.9676 18.7057 10.6873 18.9861 10.6873 19.332C10.6873 19.678 10.9676 19.9583 11.3136 19.9583H30.0192C30.3651 19.9583 30.6455 19.678 30.6455 19.332C30.6455 18.9861 30.3652 18.7057 30.0192 18.7057Z" fill="url(#paint14_linear)"/>
<path d="M12.6497 21.3779H11.3136C10.9676 21.3779 10.6873 21.6583 10.6873 22.0043C10.6873 22.3502 10.9676 22.6306 11.3136 22.6306H12.6497C12.9956 22.6306 13.276 22.3502 13.276 22.0043C13.276 21.6583 12.9957 21.3779 12.6497 21.3779Z" fill="url(#paint15_linear)"/>
<path d="M20.6697 21.3779H19.3336C18.9877 21.3779 18.7073 21.6583 18.7073 22.0043C18.7073 22.3502 18.9876 22.6306 19.3336 22.6306H20.6697C21.0156 22.6306 21.296 22.3502 21.296 22.0043C21.296 21.6583 21.0157 21.3779 20.6697 21.3779Z" fill="url(#paint16_linear)"/>
<path d="M16.6597 21.3779H15.3236C14.9777 21.3779 14.6973 21.6583 14.6973 22.0043C14.6973 22.3502 14.9776 22.6306 15.3236 22.6306H16.6597C17.0056 22.6306 17.286 22.3502 17.286 22.0043C17.286 21.6583 17.0057 21.3779 16.6597 21.3779Z" fill="url(#paint17_linear)"/>
<path d="M7.30886 25.3862C6.22675 25.3862 5.34644 26.2665 5.34644 27.3487C5.34644 28.4308 6.22675 29.3111 7.30886 29.3111C8.39097 29.3111 9.27128 28.4308 9.27128 27.3487C9.27128 26.2665 8.39097 25.3862 7.30886 25.3862ZM7.30886 28.0584C6.91745 28.0584 6.59901 27.74 6.59901 27.3486C6.59901 26.9572 6.91745 26.6387 7.30886 26.6387C7.70026 26.6387 8.0187 26.9572 8.0187 27.3486C8.0187 27.7401 7.70026 28.0584 7.30886 28.0584Z" fill="url(#paint18_linear)"/>
<path d="M24.0067 25.3862H11.3136C10.9676 25.3862 10.6873 25.6666 10.6873 26.0126C10.6873 26.3585 10.9676 26.6389 11.3136 26.6389H24.0067C24.3526 26.6389 24.633 26.3585 24.633 26.0126C24.633 25.6666 24.3526 25.3862 24.0067 25.3862Z" fill="url(#paint19_linear)"/>
<path d="M12.6497 28.0585H11.3136C10.9676 28.0585 10.6873 28.3389 10.6873 28.6848C10.6873 29.0307 10.9676 29.3111 11.3136 29.3111H12.6497C12.9956 29.3111 13.276 29.0307 13.276 28.6848C13.276 28.3389 12.9957 28.0585 12.6497 28.0585Z" fill="url(#paint20_linear)"/>
<path d="M20.6697 28.0585H19.3336C18.9877 28.0585 18.7073 28.3389 18.7073 28.6848C18.7073 29.0307 18.9876 29.3111 19.3336 29.3111H20.6697C21.0156 29.3111 21.296 29.0307 21.296 28.6848C21.296 28.3389 21.0157 28.0585 20.6697 28.0585Z" fill="url(#paint21_linear)"/>
<path d="M16.6597 28.0585H15.3236C14.9777 28.0585 14.6973 28.3389 14.6973 28.6848C14.6973 29.0307 14.9776 29.3111 15.3236 29.3111H16.6597C17.0056 29.3111 17.286 29.0307 17.286 28.6848C17.286 28.3389 17.0057 28.0585 16.6597 28.0585Z" fill="url(#paint22_linear)"/>
<defs>
<linearGradient id="paint0_linear" x1="17.9959" y1="2.00415" x2="17.9959" y2="33.9874" gradientUnits="userSpaceOnUse">
<stop stop-color="#EF4744"/>
<stop offset="1" stop-color="#FF9966"/>
</linearGradient>
<linearGradient id="paint1_linear" x1="29.351" y1="7.34863" x2="29.351" y2="8.60129" gradientUnits="userSpaceOnUse">
<stop stop-color="#EF4744"/>
<stop offset="1" stop-color="#FF9966"/>
</linearGradient>
<linearGradient id="paint2_linear" x1="3.30143" y1="4.67639" x2="3.30143" y2="5.92905" gradientUnits="userSpaceOnUse">
<stop stop-color="#EF4744"/>
<stop offset="1" stop-color="#FF9966"/>
</linearGradient>
<linearGradient id="paint3_linear" x1="8.64787" y1="4.67639" x2="8.64787" y2="5.92905" gradientUnits="userSpaceOnUse">
<stop stop-color="#EF4744"/>
<stop offset="1" stop-color="#FF9966"/>
</linearGradient>
<linearGradient id="paint4_linear" x1="5.96818" y1="4.67639" x2="5.96818" y2="5.92905" gradientUnits="userSpaceOnUse">
<stop stop-color="#EF4744"/>
<stop offset="1" stop-color="#FF9966"/>
</linearGradient>
<linearGradient id="paint5_linear" x1="22.0025" y1="4.67639" x2="22.0025" y2="5.92905" gradientUnits="userSpaceOnUse">
<stop stop-color="#EF4744"/>
<stop offset="1" stop-color="#FF9966"/>
</linearGradient>
<linearGradient id="paint6_linear" x1="32.692" y1="23.382" x2="32.692" y2="37.9957" gradientUnits="userSpaceOnUse">
<stop stop-color="#EF4744"/>
<stop offset="1" stop-color="#FF9966"/>
</linearGradient>
<linearGradient id="paint7_linear" x1="32.696" y1="26.7224" x2="32.696" y2="34.6557" gradientUnits="userSpaceOnUse">
<stop stop-color="#EF4744"/>
<stop offset="1" stop-color="#FF9966"/>
</linearGradient>
<linearGradient id="paint8_linear" x1="7.30886" y1="12.0251" x2="7.30886" y2="15.95" gradientUnits="userSpaceOnUse">
<stop stop-color="#EF4744"/>
<stop offset="1" stop-color="#FF9966"/>
</linearGradient>
<linearGradient id="paint9_linear" x1="20.6664" y1="12.0251" x2="20.6664" y2="13.2778" gradientUnits="userSpaceOnUse">
<stop stop-color="#EF4744"/>
<stop offset="1" stop-color="#FF9966"/>
</linearGradient>
<linearGradient id="paint10_linear" x1="11.9816" y1="14.6973" x2="11.9816" y2="15.9499" gradientUnits="userSpaceOnUse">
<stop stop-color="#EF4744"/>
<stop offset="1" stop-color="#FF9966"/>
</linearGradient>
<linearGradient id="paint11_linear" x1="20.0017" y1="14.6973" x2="20.0017" y2="15.9499" gradientUnits="userSpaceOnUse">
<stop stop-color="#EF4744"/>
<stop offset="1" stop-color="#FF9966"/>
</linearGradient>
<linearGradient id="paint12_linear" x1="15.9916" y1="14.6973" x2="15.9916" y2="15.9499" gradientUnits="userSpaceOnUse">
<stop stop-color="#EF4744"/>
<stop offset="1" stop-color="#FF9966"/>
</linearGradient>
<linearGradient id="paint13_linear" x1="7.30886" y1="18.7057" x2="7.30886" y2="22.6305" gradientUnits="userSpaceOnUse">
<stop stop-color="#EF4744"/>
<stop offset="1" stop-color="#FF9966"/>
</linearGradient>
<linearGradient id="paint14_linear" x1="20.6664" y1="18.7057" x2="20.6664" y2="19.9583" gradientUnits="userSpaceOnUse">
<stop stop-color="#EF4744"/>
<stop offset="1" stop-color="#FF9966"/>
</linearGradient>
<linearGradient id="paint15_linear" x1="11.9816" y1="21.3779" x2="11.9816" y2="22.6306" gradientUnits="userSpaceOnUse">
<stop stop-color="#EF4744"/>
<stop offset="1" stop-color="#FF9966"/>
</linearGradient>
<linearGradient id="paint16_linear" x1="20.0017" y1="21.3779" x2="20.0017" y2="22.6306" gradientUnits="userSpaceOnUse">
<stop stop-color="#EF4744"/>
<stop offset="1" stop-color="#FF9966"/>
</linearGradient>
<linearGradient id="paint17_linear" x1="15.9916" y1="21.3779" x2="15.9916" y2="22.6306" gradientUnits="userSpaceOnUse">
<stop stop-color="#EF4744"/>
<stop offset="1" stop-color="#FF9966"/>
</linearGradient>
<linearGradient id="paint18_linear" x1="7.30886" y1="25.3862" x2="7.30886" y2="29.3111" gradientUnits="userSpaceOnUse">
<stop stop-color="#EF4744"/>
<stop offset="1" stop-color="#FF9966"/>
</linearGradient>
<linearGradient id="paint19_linear" x1="17.6601" y1="25.3862" x2="17.6601" y2="26.6389" gradientUnits="userSpaceOnUse">
<stop stop-color="#EF4744"/>
<stop offset="1" stop-color="#FF9966"/>
</linearGradient>
<linearGradient id="paint20_linear" x1="11.9816" y1="28.0585" x2="11.9816" y2="29.3111" gradientUnits="userSpaceOnUse">
<stop stop-color="#EF4744"/>
<stop offset="1" stop-color="#FF9966"/>
</linearGradient>
<linearGradient id="paint21_linear" x1="20.0017" y1="28.0585" x2="20.0017" y2="29.3111" gradientUnits="userSpaceOnUse">
<stop stop-color="#EF4744"/>
<stop offset="1" stop-color="#FF9966"/>
</linearGradient>
<linearGradient id="paint22_linear" x1="15.9916" y1="28.0585" x2="15.9916" y2="29.3111" gradientUnits="userSpaceOnUse">
<stop stop-color="#EF4744"/>
<stop offset="1" stop-color="#FF9966"/>
</linearGradient>
</defs>
</svg>
